<svg width="542.667" height="541.333" xmlns="http://www.w3.org/2000/svg"><path d="M6.719 4057.72H4061.17V3.27H6.719z" style="fill:none;stroke:#fff;stroke-width:2.16;stroke-linecap:butt;stroke-linejoin:miter;stroke-miterlimit:22.9256;stroke-dasharray:none;stroke-opacity:1" transform="matrix(.13333 0 0 -.13333 0 541.333)"/><path d="M3539.04 3535.59c-139.85 158.72-319.63 304.11-550.99 354.16-195.39 42.28-431.77-24.17-589.88-184.44-128.78-130.54-262.49-257.64-381.87-410.15-97.04 59.82-199.12 87.36-235.4 2.79-9.33-21.76 161.54-109.98 193.16-102.16 10.87 2.69 18.15-15.84 26.35-16.72-246.6-189.08-505.6-416.64-730.14-652.95-84.13-10.1-150.11-96.45-157.33-166.18-91.35-98.01-171.506-181.28-256.366-288.14-67.511-16.85-154.086-87.62-231-157.94-130.429-133.58-266.761-258.89-379.484-412.53-92.801-133.49-104.914-287.45-54.227-466.7 55.383-195.876 196.52-363.888 339.426-506.786 142.902-142.91 310.914-284.043 506.791-339.43 179.25-50.687 333.21-38.574 466.7 54.227 153.64 112.722 278.95 249.058 412.52 379.484 70.33 76.914 141.1 163.488 157.95 231 106.86 84.859 190.13 165.015 288.14 256.365 69.73 7.22 156.08 73.2 166.18 157.33 236.31 224.54 463.87 483.54 652.95 730.14.88-8.2 19.41-15.48 16.72-26.35-7.82-31.62 80.4-202.49 102.15-193.16 84.58 36.28 57.04 138.36-2.78 235.41 152.51 119.37 279.61 253.09 410.14 381.86 160.28 158.11 226.73 394.49 184.45 589.88-50.05 231.36-195.44 411.14-354.16 550.99" style="fill:#fad025;fill-opacity:1;fill-rule:evenodd;stroke:none" transform="matrix(.13333 0 0 -.13333 0 541.333)"/><path d="M3539.04 3535.59c-139.85 158.72-319.63 304.11-550.99 354.16-195.39 42.28-431.77-24.17-589.88-184.44-128.78-130.54-262.49-257.64-381.87-410.15-97.04 59.82-199.12 87.36-235.4 2.79-9.33-21.76 161.54-109.98 193.16-102.16 10.87 2.69 18.15-15.84 26.35-16.72-246.6-189.08-505.6-416.64-730.14-652.95-84.13-10.1-150.11-96.45-157.33-166.18-91.35-98.01-171.506-181.28-256.366-288.14-67.511-16.85-154.086-87.62-231-157.94-130.429-133.58-266.761-258.89-379.484-412.53-92.801-133.49-104.914-287.45-54.227-466.7 55.383-195.876 196.52-363.888 339.426-506.786 142.902-142.91 310.914-284.043 506.791-339.43 179.25-50.687 333.21-38.574 466.7 54.227 153.64 112.722 278.95 249.058 412.52 379.484 70.33 76.914 141.1 163.488 157.95 231 106.86 84.859 190.13 165.015 288.14 256.365 69.73 7.22 156.08 73.2 166.18 157.33 236.31 224.54 463.87 483.54 652.95 730.14.88-8.2 19.41-15.48 16.72-26.35-7.82-31.62 80.4-202.49 102.15-193.16 84.58 36.28 57.04 138.36-2.78 235.41 152.51 119.37 279.61 253.09 410.14 381.86 160.28 158.11 226.73 394.49 184.45 589.88-50.05 231.36-195.44 411.14-354.16 550.99z" style="fill:none;stroke:#231f20;stroke-width:56.6929;stroke-linecap:butt;stroke-linejoin:miter;stroke-miterlimit:22.9256;stroke-dasharray:none;stroke-opacity:1" transform="matrix(.13333 0 0 -.13333 0 541.333)"/><path d="M3539.04 3535.59c-139.85 158.72-319.63 304.11-550.99 354.16-195.39 42.28-431.77-24.17-589.88-184.44-128.78-130.54-262.49-257.64-381.87-410.15-97.04 59.82-199.12 87.36-235.4 2.79-9.33-21.76 161.54-109.98 193.16-102.16 10.87 2.69 18.15-15.84 26.35-16.72-246.6-189.08-505.6-416.64-730.14-652.95-84.13-10.1-150.11-96.45-157.33-166.18-91.35-98.01-171.506-181.28-256.366-288.14-67.511-16.85-154.086-87.62-231-157.94-130.429-133.58-266.761-258.89-379.484-412.53-92.801-133.49-104.914-287.45-54.227-466.7 55.383-195.876 196.52-363.888 339.426-506.786 142.902-142.91 310.914-284.043 506.791-339.43 179.25-50.687 333.21-38.574 466.7 54.227 153.64 112.722 278.95 249.058 412.52 379.484 70.33 76.914 141.1 163.488 157.95 231 106.86 84.859 190.13 165.015 288.14 256.365 69.73 7.22 156.08 73.2 166.18 157.33 236.31 224.54 463.87 483.54 652.95 730.14.88-8.2 19.41-15.48 16.72-26.35-7.82-31.62 80.4-202.49 102.15-193.16 84.58 36.28 57.04 138.36-2.78 235.41 152.51 119.37 279.61 253.09 410.14 381.86 160.28 158.11 226.73 394.49 184.45 589.88-50.05 231.36-195.44 411.14-354.16 550.99" style="fill:#fad025;fill-opacity:1;fill-rule:evenodd;stroke:none" transform="matrix(.13333 0 0 -.13333 0 541.333)"/><path d="M606.719 1697c475.041 624.62 944.111 1129.9 1548.661 1600.52-415.43-600.7-944.65-1125.55-1548.661-1600.52M1584.41 2306.97l292.77 280.97c32.11 30.82 82.39 30.87 114.44 0 101.04-97.33 205.92-191.08 303.09-291.95 100.87-97.17 194.62-202.05 291.95-303.09 30.87-32.05 30.82-82.33 0-114.44l-280.97-292.76c-30.82-32.11-82.97-31.48-114.44 0-202.28 202.27-404.56 404.55-606.84 606.84-31.47 31.46-32.11 83.61 0 114.43M3301.37 2151.53c-624.63-475.04-1129.91-944.11-1600.52-1548.659C2301.54 1018.3 2826.39 1547.51 3301.37 2151.53M807.078 803.629c-147.883 148.25-260.73 324.741-311.148 551.581 150.859 155.57 301.718 311.14 452.578 466.72 90.012-159.25 233.472-324.67 386.572-490.3 165.63-153.1 331.05-296.56 490.3-386.571-155.58-150.86-311.15-301.719-466.72-452.575-226.84 50.414-403.332 163.262-551.582 311.145" style="fill:#231f20;fill-opacity:1;fill-rule:evenodd;stroke:none" transform="matrix(.13333 0 0 -.13333 0 541.333)"/><path d="m545.633 1406.46 402.875 415.47c90.012-159.25 233.472-324.67 386.572-490.3 165.63-153.1 331.05-296.56 490.3-386.571l-388.6-376.805c-178 110.48-369.64 262.887-554.37 447.616-129.156 129.16-242.492 261.69-336.777 390.59" style="fill:#2e2a2b;fill-opacity:1;fill-rule:evenodd;stroke:none" transform="matrix(.13333 0 0 -.13333 0 541.333)"/><path d="m545.633 1406.46 402.875 415.47c90.012-159.25 233.472-324.67 386.572-490.3 165.63-153.1 331.05-296.56 490.3-386.571l-388.6-376.805c-178 110.48-369.64 262.887-554.37 447.616-129.156 129.16-242.492 261.69-336.777 390.59z" style="fill:none;stroke:#393536;stroke-width:2.16;stroke-linecap:butt;stroke-linejoin:miter;stroke-miterlimit:22.9256;stroke-dasharray:none;stroke-opacity:1" transform="matrix(.13333 0 0 -.13333 0 541.333)"/><path d="M2462.4 2458.95c-165.41 163.13-341.36 306.77-549.81 411.92l374.79 502.08c258.25 63.3 520.2-52.81 784.94-304.08 251.27-264.74 367.38-526.69 304.07-784.94-167.35-124.93-334.71-249.86-502.07-374.79-105.15 208.45-248.79 384.4-411.92 549.81" style="fill:#231f20;fill-opacity:1;fill-rule:evenodd;stroke:none" transform="matrix(.13333 0 0 -.13333 0 541.333)"/><path d="M2462.4 2458.95c-165.41 163.13-341.36 306.77-549.81 411.92l322.15 431.54c159.62-106.07 327.97-243.84 490.93-406.81 236.8-236.8 420.5-484.97 530.81-701.18l-382.16-285.28c-105.15 208.45-248.79 384.4-411.92 549.81" style="fill:#2e2a2b;fill-opacity:1;fill-rule:evenodd;stroke:none" transform="matrix(.13333 0 0 -.13333 0 541.333)"/><path d="M2462.4 2458.95c-165.41 163.13-341.36 306.77-549.81 411.92l322.15 431.54c159.62-106.07 327.97-243.84 490.93-406.81 236.8-236.8 420.5-484.97 530.81-701.18l-382.16-285.28c-105.15 208.45-248.79 384.4-411.92 549.81z" style="fill:none;stroke:#393536;stroke-width:2.16;stroke-linecap:butt;stroke-linejoin:miter;stroke-miterlimit:22.9256;stroke-dasharray:none;stroke-opacity:1" transform="matrix(.13333 0 0 -.13333 0 541.333)"/><path d="M2684.48 3826.86c9.77 22.18 89.72 32.27 178.54 22.52 88.83-9.75 152.93-35.65 143.16-57.83-9.77-22.18-89.72-32.26-178.54-22.52-88.82 9.76-152.93 35.65-143.16 57.83zM3795 3002.73c-22.19-9.77-32.27-89.72-22.52-178.54 9.75-88.82 35.65-152.93 57.83-143.16 22.18 9.77 32.26 89.72 22.51 178.54-9.75 88.83-35.64 152.93-57.82 143.16" style="fill:#393536;fill-opacity:1;fill-rule:evenodd;stroke:none" transform="matrix(.13333 0 0 -.13333 0 541.333)"/><path d="M2684.48 3826.86c9.77 22.18 89.72 32.27 178.54 22.52 88.83-9.75 152.93-35.65 143.16-57.83-9.77-22.18-89.72-32.26-178.54-22.52-88.82 9.76-152.93 35.65-143.16 57.83zM3795 3002.73c-22.19-9.77-32.27-89.72-22.52-178.54 9.75-88.82 35.65-152.93 57.83-143.16 22.18 9.77 32.26 89.72 22.51 178.54-9.75 88.83-35.64 152.93-57.82 143.16z" style="fill:none;stroke:#393536;stroke-width:2.16;stroke-linecap:butt;stroke-linejoin:miter;stroke-miterlimit:22.9256;stroke-dasharray:none;stroke-opacity:1" transform="matrix(.13333 0 0 -.13333 0 541.333)"/><path d="M249.406 1336.8c23.43 23.43 56.539-21.58 73.934-100.5 17.402-78.91 12.512-161.92-10.918-185.35-23.43-23.43-56.535 21.58-73.938 100.5-17.398 78.92-12.507 161.92 10.922 185.35zM1054.41 308.977c-23.44-23.43 21.57-56.539 100.49-73.938 78.92-17.402 161.92-12.508 185.35 10.922 23.43 23.426-21.57 56.535-100.49 73.937-78.92 17.395-161.93 12.508-185.35-10.921" style="fill:#ed1c24;fill-opacity:1;fill-rule:evenodd;stroke:none" transform="matrix(.13333 0 0 -.13333 0 541.333)"/><path d="M249.406 1336.8c23.43 23.43 56.539-21.58 73.934-100.5 17.402-78.91 12.512-161.92-10.918-185.35-23.43-23.43-56.535 21.58-73.938 100.5-17.398 78.92-12.507 161.92 10.922 185.35zM1054.41 308.977c-23.44-23.43 21.57-56.539 100.49-73.938 78.92-17.402 161.92-12.508 185.35 10.922 23.43 23.426-21.57 56.535-100.49 73.937-78.92 17.395-161.93 12.508-185.35-10.921z" style="fill:none;stroke:#ed1c24;stroke-width:2.16;stroke-linecap:butt;stroke-linejoin:miter;stroke-miterlimit:22.9256;stroke-dasharray:none;stroke-opacity:1" transform="matrix(.13333 0 0 -.13333 0 541.333)"/></svg>
