<svg xmlns="http://www.w3.org/2000/svg" xml:space="preserve" width="256" height="256"><g style="stroke:none;stroke-width:0;stroke-dasharray:none;stroke-linecap:butt;stroke-linejoin:miter;stroke-miterlimit:10;fill:none;fill-rule:nonzero;opacity:1"><path d="M89.357 7.284c-1.02-1.297-2.9-1.552-4.216-.557C73.3 15.685 62.228 25.68 52.018 36.561c-5.44 5.811-10.63 11.885-15.478 18.289a173.726 173.726 0 0 0-7.396 10.6h-.148L15.315 38.08a8.152 8.152 0 0 0-12.077-2.954c-3.577 2.586-4.206 7.702-1.811 11.41l22.147 34.278.271.421a5.785 5.785 0 0 0 3.635 2.516c2.745.617 5.472-1.02 6.608-3.595 2.922-6.621 6.702-13.106 10.829-19.367 4.206-6.345 8.816-12.484 13.706-18.41 9.183-11.104 19.331-21.496 30.315-30.939a3.015 3.015 0 0 0 .419-4.156z" style="stroke:none;stroke-width:1;stroke-dasharray:none;stroke-linecap:butt;stroke-linejoin:miter;stroke-miterlimit:10;fill:#72b537;fill-rule:nonzero;opacity:1" transform="matrix(2.81 0 0 2.81 1.407 1.407)"/></g></svg>
